<?xml version="1.0" encoding="iso-8859-1"?>
<!-- Generator: Adobe Illustrator 19.0.0, SVG Export Plug-In . SVG Version: 6.00 Build 0)  -->
<svg version="1.1" id="Layer_1" xmlns="http://www.w3.org/2000/svg" xmlns:xlink="http://www.w3.org/1999/xlink" x="0px" y="0px"
	 viewBox="0 0 512 512" style="enable-background:new 0 0 512 512;" xml:space="preserve">
<g>
	<g>
		<path d="M503.983,149.645H219.776c-3.119-17.417-11.115-33.65-23.303-46.853c-3.001-3.253-8.073-3.456-11.328-0.453
			c-3.254,3.004-3.456,8.074-0.453,11.328c13.244,14.347,20.536,33.009,20.536,52.546c0,42.731-34.764,77.495-77.495,77.495
			c-42.731,0-77.495-34.764-77.495-77.495s34.764-77.495,77.495-77.495c13.591,0,26.959,3.566,38.657,10.313
			c3.835,2.213,8.737,0.897,10.95-2.939c2.212-3.835,0.896-8.737-2.939-10.95c-14.131-8.149-30.267-12.457-46.667-12.457
			c-45.92,0-84.215,33.264-92.058,76.96H8.017c-4.428,0-8.017,3.589-8.017,8.017v273.637c0,4.427,3.588,8.017,8.017,8.017h371.975
			c4.428,0,8.017-3.589,8.017-8.017c0-4.427-3.588-8.017-8.017-8.017H16.033V165.679h18.178c-0.001,0.178-0.006,0.356-0.006,0.534
			c0,42.877,29.003,79.102,68.42,90.101c-0.001,0.074-0.011,0.145-0.011,0.22v44.114c-0.311,0.107-0.621,0.228-0.924,0.376
			c-20.528,10.043-33.281,30.472-33.281,53.313c0,32.711,26.612,59.324,59.324,59.324s59.324-26.612,59.324-59.324
			c0-22.239-12.27-42.425-32.022-52.679c-0.705-0.367-1.44-0.614-2.183-0.756v-44.592c39.411-11.002,68.409-47.225,68.409-90.098
			c0-0.179-0.012-0.356-0.013-0.534h274.719v257.603H410.99c-4.428,0-8.017,3.589-8.017,8.017c0,4.427,3.588,8.017,8.017,8.017
			h92.994c4.428,0,8.017-3.589,8.017-8.017V157.662C512,153.234,508.412,149.645,503.983,149.645z M118.647,259.299
			c2.991,0.29,6.02,0.443,9.086,0.443c3.066,0,6.095-0.153,9.086-0.443v86.488c0,5.01-4.076,9.086-9.086,9.086
			s-9.086-4.076-9.086-9.086V259.299z M152.852,345.787V319.07c11.337,8.061,18.171,21.092,18.171,35.268
			c0,23.871-19.42,43.29-43.29,43.29s-43.29-19.42-43.29-43.29c0-14.258,6.825-27.211,18.171-35.253v26.702
			c0,13.851,11.268,25.119,25.119,25.119S152.852,359.638,152.852,345.787z"/>
	</g>
</g>
<g>
	<g>
		<path d="M264.551,209.503c-18.566,0-33.67,15.105-33.67,33.67s15.105,33.67,33.67,33.67s33.67-15.105,33.67-33.67
			S283.117,209.503,264.551,209.503z M264.551,260.81c-9.725,0-17.637-7.912-17.637-17.637s7.912-17.637,17.637-17.637
			s17.637,7.912,17.637,17.637S274.276,260.81,264.551,260.81z"/>
	</g>
</g>
<g>
	<g>
		<path d="M350.063,209.503c-18.566,0-33.67,15.105-33.67,33.67s15.104,33.67,33.67,33.67s33.67-15.105,33.67-33.67
			S368.628,209.503,350.063,209.503z M350.063,260.81c-9.725,0-17.637-7.912-17.637-17.637s7.912-17.637,17.637-17.637
			s17.637,7.912,17.637,17.637S359.787,260.81,350.063,260.81z"/>
	</g>
</g>
<g>
	<g>
		<path d="M435.574,209.503c-18.566,0-33.67,15.105-33.67,33.67s15.105,33.67,33.67,33.67c18.566,0,33.67-15.105,33.67-33.67
			S454.14,209.503,435.574,209.503z M435.574,260.81c-9.725,0-17.637-7.912-17.637-17.637s7.912-17.637,17.637-17.637
			c9.725,0,17.637,7.912,17.637,17.637S445.299,260.81,435.574,260.81z"/>
	</g>
</g>
<g>
	<g>
		<path d="M418.472,295.015c-32.711,0-59.324,26.612-59.324,59.324c0,32.711,26.612,59.324,59.324,59.324
			c32.711,0,59.324-26.612,59.324-59.324C477.795,321.627,451.183,295.015,418.472,295.015z M418.472,397.628
			c-23.87,0-43.29-19.42-43.29-43.29s19.42-43.29,43.29-43.29c23.871,0,43.29,19.42,43.29,43.29S442.342,397.628,418.472,397.628z"
			/>
	</g>
</g>
<g>
	<g>
		<path d="M290.205,295.015c-32.711,0-59.324,26.612-59.324,59.324c0,32.711,26.612,59.324,59.324,59.324
			s59.324-26.612,59.324-59.324C349.528,321.627,322.916,295.015,290.205,295.015z M290.205,397.628
			c-23.871,0-43.29-19.42-43.29-43.29s19.42-43.29,43.29-43.29s43.29,19.42,43.29,43.29S314.075,397.628,290.205,397.628z"/>
	</g>
</g>
<g>
	<g>
		<path d="M444.125,183.85h-17.102c-4.428,0-8.017,3.589-8.017,8.017s3.588,8.017,8.017,8.017h17.102
			c4.428,0,8.017-3.589,8.017-8.017S448.554,183.85,444.125,183.85z"/>
	</g>
</g>
<g>
	<g>
		<path d="M358.614,183.85h-17.102c-4.428,0-8.017,3.589-8.017,8.017s3.588,8.017,8.017,8.017h17.102
			c4.428,0,8.017-3.589,8.017-8.017S363.042,183.85,358.614,183.85z"/>
	</g>
</g>
<g>
	<g>
		<path d="M273.102,183.85H256c-4.428,0-8.017,3.589-8.017,8.017s3.588,8.017,8.017,8.017h17.102c4.428,0,8.017-3.589,8.017-8.017
			S277.531,183.85,273.102,183.85z"/>
	</g>
</g>
<g>
</g>
<g>
</g>
<g>
</g>
<g>
</g>
<g>
</g>
<g>
</g>
<g>
</g>
<g>
</g>
<g>
</g>
<g>
</g>
<g>
</g>
<g>
</g>
<g>
</g>
<g>
</g>
<g>
</g>
</svg>
